<?xml version="1.0" encoding="UTF-8"?>
<svg version="1.1" xmlns="http://www.w3.org/2000/svg" width="1980" height="540">
<path d="M0 0 C653.4 0 1306.8 0 1980 0 C1980 178.2 1980 356.4 1980 540 C1326.6 540 673.2 540 0 540 C0 361.8 0 183.6 0 0 Z " fill="#FEFEFE" transform="translate(0,0)"/>
<path d="M0 0 C1.0503241 0.00498505 2.10064819 0.00997009 3.18280029 0.0151062 C30.96193004 0.16944936 60.076709 2.65983794 86.0625 13.375 C87.5815127 13.96357961 89.10107679 14.55073754 90.62109375 15.13671875 C125.73524951 28.92426781 156.87057416 48.08365399 184.0625 74.375 C185.17214111 75.44379395 185.17214111 75.44379395 186.30419922 76.53417969 C196.34850215 86.25499787 205.92902038 95.98622299 214.0625 107.375 C214.50996582 107.99407227 214.95743164 108.61314453 215.41845703 109.25097656 C242.68832289 147.17923568 259.43643429 190.79390318 264.0625 237.375 C264.2028064 238.70833374 264.2028064 238.70833374 264.34594727 240.06860352 C265.17828935 248.77089883 265.26377124 257.45441367 265.25 266.1875 C265.24906342 266.95678833 265.24812683 267.72607666 265.24716187 268.51867676 C265.19373262 288.84916179 263.50615894 308.08429357 258.67089844 327.88330078 C258.14887429 330.02125362 257.65194759 332.16268808 257.1640625 334.30859375 C247.46418195 374.22048759 226.01157033 410.74742155 199.0625 441.375 C198.53333984 441.99028564 198.00417969 442.60557129 197.45898438 443.23950195 C187.67270373 454.5745415 177.0140212 465.32836243 165.0625 474.375 C164.52367187 474.79023926 163.98484375 475.20547852 163.4296875 475.63330078 C141.42374844 492.55098319 117.04385649 505.69749053 91.0625 515.375 C89.66657006 515.91250959 88.27073264 516.45025955 86.875 516.98828125 C57.82663367 527.95520085 21.37565289 536.36748267 -9.9375 532.375 C-10.9275 531.715 -11.9175 531.055 -12.9375 530.375 C-15.75785161 529.9780314 -15.75785161 529.9780314 -18.984375 529.8828125 C-20.20995117 529.82013184 -21.43552734 529.75745117 -22.69824219 529.69287109 C-24.01469727 529.62922363 -25.33115234 529.56557617 -26.6875 529.5 C-92.31050888 525.74669787 -153.47633475 493.37785807 -197.9375 445.375 C-201.0636544 441.80081381 -204.0135674 438.11538847 -206.9375 434.375 C-207.81757691 433.28399833 -208.69915767 432.1942085 -209.58203125 431.10546875 C-237.88821759 395.99821878 -255.27130764 353.82154074 -263.1875 309.5625 C-263.35088867 308.6562085 -263.51427734 307.74991699 -263.68261719 306.81616211 C-266.10882664 292.45677854 -266.21016322 277.96139173 -266.25 263.4375 C-266.25295074 262.4877832 -266.25590149 261.53806641 -266.25894165 260.55957031 C-266.26912674 246.13626573 -265.59872192 232.40143804 -261.9375 218.375 C-261.69612305 217.42890869 -261.45474609 216.48281738 -261.20605469 215.50805664 C-257.80595524 202.55995354 -251.13871501 194.19969088 -241.4375 185.0625 C-236.45256216 180.11217979 -232.61919993 174.32120442 -228.9375 168.375 C-228.30457031 167.35664063 -227.67164063 166.33828125 -227.01953125 165.2890625 C-221.70520451 155.41121899 -219.95726356 144.74269992 -218.15356445 133.77978516 C-211.55240602 95.04031792 -184.25161207 69.34777703 -153.53125 47.5703125 C-108.00224473 15.69622104 -55.48725744 -0.44646955 0 0 Z " fill="#1D9CA6" transform="translate(275.9375,7.625)"/>
<path d="M0 0 C3.38574458 1.12858153 3.69984502 1.62981762 5.53125 4.515625 C6.00651123 5.26094482 6.48177246 6.00626465 6.97143555 6.77416992 C7.47586182 7.59119385 7.98028809 8.40821777 8.5 9.25 C9.02827393 10.10118408 9.55654785 10.95236816 10.10083008 11.8293457 C28.33922799 41.61936347 39.76172423 73.295955 44 108 C44.27457031 109.95486328 44.27457031 109.95486328 44.5546875 111.94921875 C47.00424478 134.73281495 45.70101291 158.64909929 41 181 C40.81276367 181.92506348 40.62552734 182.85012695 40.43261719 183.80322266 C32.19607341 223.82656623 13.18163782 260.57713868 -14 291 C-14.46293457 291.51933105 -14.92586914 292.03866211 -15.40283203 292.57373047 C-24.60626725 302.85169456 -34.03279869 312.57948963 -45 321 C-45.94528564 321.72727295 -45.94528564 321.72727295 -46.90966797 322.46923828 C-79.50998928 347.30868481 -125.63982534 371.65587788 -168 367 C-205.40705264 361.35009904 -244.13516955 340.5374688 -271.73046875 315.08203125 C-273.82034516 313.16481245 -275.95876186 311.32973513 -278.125 309.5 C-282.46342094 305.71937604 -286.49823078 301.57278906 -290 297 C-290 296.34 -290 295.68 -290 295 C-288.72809814 294.98541748 -287.45619629 294.97083496 -286.14575195 294.95581055 C-204.78139164 293.95090091 -136.25056485 276.77766543 -76 219 C-75.44070801 218.46793945 -74.88141602 217.93587891 -74.30517578 217.38769531 C-65.70110832 209.16102006 -58.04636234 200.59046474 -51 191 C-50.27731934 190.02788574 -50.27731934 190.02788574 -49.54003906 189.03613281 C-41.5015281 178.17342151 -34.40026051 166.90133123 -28 155 C-27.6071582 154.27184082 -27.21431641 153.54368164 -26.80957031 152.79345703 C-8.51947719 118.23250955 -1.74052782 79.26503616 0.50805664 40.64428711 C0.69046081 37.51165065 0.8843237 34.37987515 1.08007812 31.24804688 C1.20376749 29.22920593 1.32683825 27.21032696 1.44921875 25.19140625 C1.50542892 24.26848282 1.5616391 23.34555939 1.61955261 22.39466858 C2.4188466 12.47471483 2.4188466 12.47471483 0 3 C0 2.01 0 1.02 0 0 Z " fill="#FDFEFE" transform="translate(466,138)"/>
<path d="M0 0 C2.46547524 3.69821285 2.89441127 7.20160901 3.5625 11.5 C3.68818359 12.2528125 3.81386719 13.005625 3.94335938 13.78125 C12.83700851 68.91256194 -1.334161 131.64442273 -33.91015625 177.1484375 C-36.35701559 180.47067837 -38.87732248 183.73236657 -41.42333984 186.97900391 C-43.07869821 189.10087702 -44.7078991 191.24086422 -46.33203125 193.38671875 C-49.5297847 197.61061349 -52.75878649 201.8094052 -56 206 C-56.43473633 206.56686523 -56.86947266 207.13373047 -57.31738281 207.71777344 C-70.01472031 224.21111751 -86.69269885 231.23478137 -107 234 C-110.43720122 234.16462753 -113.87174772 234.18773193 -117.3125 234.203125 C-118.31724365 234.20882507 -119.3219873 234.21452515 -120.35717773 234.22039795 C-122.48875892 234.22983082 -124.62035457 234.23637511 -126.75195312 234.24023438 C-129.93387421 234.24980119 -133.11510919 234.28078146 -136.296875 234.3125 C-154.41966629 234.40742391 -172.0755538 232.66816926 -189.6875 228.25 C-190.73164063 227.99105957 -191.77578125 227.73211914 -192.8515625 227.46533203 C-228.98095732 218.21740095 -262.01791415 199.38005583 -290 175 C-291.05574219 174.11248047 -291.05574219 174.11248047 -292.1328125 173.20703125 C-302.36525264 164.53728594 -312.01359484 154.78683294 -320 144 C-320.57621094 143.25105469 -321.15242188 142.50210938 -321.74609375 141.73046875 C-323.50737124 137.89516357 -323.22865676 134.42095471 -322.9375 130.3125 C-322.88585693 129.45615967 -322.83421387 128.59981934 -322.78100586 127.7175293 C-321.73936905 113.03944567 -319.34485398 98.32437466 -316 84 C-315.01 84 -314.02 84 -313 84 C-311.0546875 86.0546875 -311.0546875 86.0546875 -308.875 88.875 C-304.44894872 94.45753565 -299.86069766 99.79210965 -295 105 C-294.20335937 105.86238281 -293.40671875 106.72476563 -292.5859375 107.61328125 C-262.20079617 139.32949373 -218.46470316 155.87422503 -175 157 C-174.0409375 157.03996094 -173.081875 157.07992187 -172.09375 157.12109375 C-135.05662764 158.00540706 -98.12265682 147.0749568 -69 124 C-68.42975098 123.54931152 -67.85950195 123.09862305 -67.27197266 122.63427734 C-31.39380955 93.89375939 -9.8656399 56.06078448 -2 11 C-1.5837592 8.74992118 -1.16718179 6.49990455 -0.75 4.25 C-0.49801751 2.83368462 -0.24703262 1.41718712 0 0 Z " fill="#FDFEFE" transform="translate(433,123)"/>
<path d="M0 0 C12.21648871 8.98271228 21.16408444 21.05353876 24.21508789 36.06079102 C24.80998309 39.99527656 24.86762194 43.87487643 24.8203125 47.84765625 C24.80907349 49.09977905 24.80907349 49.09977905 24.79760742 50.37719727 C24.52369696 66.05742363 19.12186747 81.28273899 8.25 92.88671875 C-6.8232461 107.01493375 -23.977529 112.15060697 -44.31640625 111.66015625 C-49.9494787 111.40098567 -55.09993182 110.23097181 -60.4296875 108.41015625 C-61.41324219 108.08144531 -62.39679687 107.75273437 -63.41015625 107.4140625 C-78.66245559 101.71171514 -90.09138247 90.78984067 -97.4296875 76.41015625 C-104.19538051 60.76718451 -105.20193396 41.69027601 -98.97265625 25.70703125 C-91.09394656 8.87252244 -78.27097135 -2.14274367 -60.94140625 -8.80078125 C-39.94783859 -15.39596114 -18.37945474 -12.02642778 0 0 Z " fill="#1E9DA6" transform="translate(812.4296875,277.58984375)"/>
<path d="M0 0 C0.97904297 0.00563965 1.95808594 0.0112793 2.96679688 0.01708984 C9.81217371 0.13239723 15.79441763 0.73385947 22.1875 3.3125 C23.31285156 3.72628906 24.43820312 4.14007813 25.59765625 4.56640625 C41.98206675 10.99750641 53.19461068 22.2326462 60.77734375 37.91796875 C63.72537642 45.01447954 64.50288807 51.03453481 64.4375 58.625 C64.44910156 59.9543457 64.44910156 59.9543457 64.4609375 61.31054688 C64.41439012 77.2646602 58.88961141 93.02438783 47.8671875 104.7890625 C32.76747344 118.94208602 15.60604041 124.04279149 -4.76171875 123.56640625 C-10.07553458 123.32088748 -14.813952 122.08667599 -19.8125 120.3125 C-21.12734375 119.92964844 -21.12734375 119.92964844 -22.46875 119.5390625 C-37.35908302 114.87513635 -48.8439616 104.33265039 -56.49609375 90.92578125 C-63.84277082 76.34142825 -65.31409681 58.09366608 -60.8125 42.3125 C-59.70984043 39.16885999 -58.3647114 36.2581157 -56.8125 33.3125 C-56.39097656 32.49910156 -55.96945312 31.68570312 -55.53515625 30.84765625 C-46.84958028 15.23286732 -31.97697886 6.25047046 -15.1953125 1.23046875 C-10.1480025 0.00530773 -5.17243059 -0.03106298 0 0 Z " fill="#1E9DA6" transform="translate(1740.8125,265.6875)"/>
<path d="M0 0 C12.31228852 9.02616645 21.94596995 22.00807283 24.44140625 37.33984375 C25.99351057 56.62356404 23.47334256 75.01980026 10.58056641 90.23608398 C-0.39607622 102.41456287 -16.05843589 110.45738016 -32.54833984 111.4609375 C-45.84582999 112.04867187 -57.59354403 110.53451488 -69.55859375 104.33984375 C-70.74195313 103.74429688 -70.74195313 103.74429688 -71.94921875 103.13671875 C-85.80884525 95.55314953 -95.16153403 83.4093724 -99.93359375 68.46484375 C-104.85125374 51.40270168 -103.30456706 35.642383 -95.55859375 19.71484375 C-86.79557089 4.44002046 -72.82170185 -4.82149729 -56.1796875 -9.96875 C-36.71505159 -15.10323667 -16.67245962 -10.81800815 0 0 Z " fill="#1E9DA7" transform="translate(830.55859375,124.66015625)"/>
<path d="M0 0 C65.95527157 0 65.95527157 0 84 16 C94.77777239 27.06808276 101.05115862 41.20585884 101.3125 56.625 C101.17947574 62.35082694 100.72157853 67.54013665 99 73 C98.74347656 73.87011719 98.48695312 74.74023438 98.22265625 75.63671875 C95.93955619 82.66239575 92.51926643 88.19234621 88 94 C87.37222656 94.83789062 86.74445313 95.67578125 86.09765625 96.5390625 C77.00113973 107.21095338 64.05547638 111.43941553 51 115 C34.17 115 17.34 115 0 115 C0 77.05 0 39.1 0 0 Z " fill="#1D9CA6" transform="translate(1202,270)"/>
<path d="M0 0 C5.79644901 3.9830348 10.66301367 8.5400437 15.56640625 13.5703125 C17.61954805 15.62015873 19.69981176 17.47292807 21.9375 19.3125 C45.80499748 39.90123015 58.41636496 72.17768727 61 103 C62.9416236 138.14836566 62.9416236 138.14836566 53.45703125 149.9140625 C33.2677297 170.918609 2.23199022 184.94272659 -26.84545898 186.16113281 C-28.22893187 186.18101356 -29.61250344 186.19473846 -30.99609375 186.203125 C-31.74729996 186.20882507 -32.49850616 186.21452515 -33.2724762 186.22039795 C-34.85831316 186.22979647 -36.44416921 186.23636131 -38.0300293 186.24023438 C-40.39994681 186.24984767 -42.76896061 186.28088079 -45.13867188 186.3125 C-63.64506797 186.44143583 -83.65754724 183.85316873 -98 171 C-98 170.34 -98 169.68 -98 169 C-97.44352783 168.94054199 -96.88705566 168.88108398 -96.3137207 168.81982422 C-75.82753455 166.54521036 -57.00177723 162.28820698 -39 152 C-38.00742187 151.44570312 -37.01484375 150.89140625 -35.9921875 150.3203125 C-14.015409 137.23442445 1.93975089 114.02977591 8.21875 89.40625 C9.87050022 82.4574831 11.15129333 75.61520733 11.77954102 68.49438477 C11.92020234 66.90287123 12.08137227 65.31294653 12.26928711 63.72631836 C14.01412358 48.03981291 9.59636985 34.84901272 4.35668945 20.30126953 C4.08298523 19.54113052 3.80928101 18.78099152 3.52728271 17.99781799 C3.00758966 16.56870152 2.47993603 15.14244341 1.94268799 13.71983337 C0.38104886 9.49252827 -0.60939649 5.49425898 -1 1 C-0.67 0.67 -0.34 0.34 0 0 Z " fill="#FCFEFE" transform="translate(302,65)"/>
<path d="M0 0 C30 0 30 0 36.125 5 C37.11693627 6.68827552 38.10666234 8.38097123 38.98632812 10.13037109 C40.88450638 13.63139447 43.44219144 16.67177777 45.875 19.8125 C46.8927318 21.17811993 47.90835049 22.54531714 48.921875 23.9140625 C52.38768721 28.5490909 56.00359334 33.05631123 59.63574219 37.5612793 C64.5260402 43.63246403 69.26418539 49.80701167 74 56 C78.95 62.435 78.95 62.435 84 69 C84.33 46.23 84.66 23.46 85 0 C94.9 0 104.8 0 115 0 C115 37.95 115 75.9 115 115 C84 115 84 115 77.9375 109.625 C76.73022461 107.74853516 76.73022461 107.74853516 76.02734375 106.0390625 C73.72022243 101.13779792 70.38920834 97.19337465 67 93 C65.78837927 91.45048158 64.57998625 89.89843333 63.375 88.34375 C62.7975 87.60125 62.22 86.85875 61.625 86.09375 C59.40727775 83.23630018 57.20257605 80.36914512 55 77.5 C50.91044598 72.17611956 46.80401431 66.86556423 42.6875 61.5625 C41.80674805 60.42554688 41.80674805 60.42554688 40.90820312 59.265625 C40.34423828 58.53988281 39.78027344 57.81414062 39.19921875 57.06640625 C38.70252686 56.42646729 38.20583496 55.78652832 37.6940918 55.12719727 C35.50763534 52.38175915 33.24685776 49.69622931 31 47 C30.67 69.44 30.34 91.88 30 115 C20.1 115 10.2 115 0 115 C0 77.05 0 39.1 0 0 Z " fill="#1E9DA6" transform="translate(1852,270)"/>
<path d="M0 0 C9.9 0 19.8 0 30 0 C34.04474027 4.62256031 37.88535971 9.02038545 41.5625 13.875 C42.4187417 14.99910116 43.27554616 16.12277381 44.1328125 17.24609375 C44.58946289 17.84534668 45.04611328 18.44459961 45.51660156 19.06201172 C48.30338636 22.70281122 51.12150348 26.31927857 53.9375 29.9375 C54.53618896 30.70739258 55.13487793 31.47728516 55.75170898 32.27050781 C58.85922365 36.26317287 61.97581312 40.24811166 65.11791992 44.21362305 C71.56207986 52.38652571 77.74378806 60.65838408 84 69 C84.33 46.23 84.66 23.46 85 0 C94.9 0 104.8 0 115 0 C115 37.95 115 75.9 115 115 C85 115 85 115 78.75 109.8125 C77.4359613 107.57811276 76.1851572 105.30533868 75 103 C73.45530554 100.92894562 71.87025058 98.88749479 70.25 96.875 C69.41334474 95.7850941 68.58012144 94.69254678 67.75 93.59765625 C64.61094017 89.48110242 61.43080038 85.39683717 58.25 81.3125 C57.6631543 80.55839844 57.07630859 79.80429687 56.47167969 79.02734375 C53.38383592 75.05989175 50.29392455 71.09405583 47.203125 67.12890625 C46.58276367 66.33250732 45.96240234 65.5361084 45.32324219 64.71557617 C44.14743327 63.20613855 42.9710443 61.69715251 41.79394531 60.1887207 C41.25350586 59.49480225 40.71306641 58.80088379 40.15625 58.0859375 C39.69025391 57.4882959 39.22425781 56.8906543 38.74414062 56.27490234 C36.13464487 52.87130752 33.57328842 49.43105123 31 46 C30.67 68.77 30.34 91.54 30 115 C20.1 115 10.2 115 0 115 C0 77.05 0 39.1 0 0 Z " fill="#1D9CA6" transform="translate(1035,270)"/>
<path d="M0 0 C0.66 0 1.32 0 2 0 C2.16113281 0.89976562 2.32226562 1.79953125 2.48828125 2.7265625 C4.80514109 13.68498015 9.1703811 22.8079436 14.3046875 32.71875 C21.59813519 46.83053514 25.67375237 60.65027989 26.875 76.5 C29.32051046 108.09609944 36.47789213 139.84137738 49 169 C49.31936523 169.74491699 49.63873047 170.48983398 49.96777344 171.25732422 C66.54138587 209.29250281 94.04459598 242.2958706 127.1171875 267.0546875 C130.50760798 269.5987524 133.76978967 272.25584012 137 275 C136.34 276.65 135.68 278.3 135 280 C127.14238603 275.73078744 119.31012817 271.41796411 111.5 267.0625 C110.44941406 266.48048828 109.39882812 265.89847656 108.31640625 265.29882812 C91.30008315 255.8020792 75.59277168 244.89614764 61 232 C60.21447754 231.30922363 60.21447754 231.30922363 59.41308594 230.60449219 C42.9257751 216.03644726 29.29310094 198.85847918 18 180 C17.60748047 179.35579102 17.21496094 178.71158203 16.81054688 178.04785156 C-10.12379112 133.46319858 -22.08574657 76.48794752 -14 25 C-13.77763672 23.57107422 -13.77763672 23.57107422 -13.55078125 22.11328125 C-11.7405094 14.14038181 -5.75017057 5.75017057 0 0 Z " fill="#FCFDFE" transform="translate(55,215)"/>
<path d="M0 0 C64.47115385 0 64.47115385 0 76.7109375 11.625 C80.78247985 15.91501536 82.54203869 20.32548872 84 26 C84.18304687 26.64582031 84.36609375 27.29164063 84.5546875 27.95703125 C86.66599709 37.643127 84.29186194 46.95237934 79.6328125 55.51171875 C74.94734372 62.37674638 68.34751033 65.56379592 61 69 C61.60585938 69.78761719 62.21171875 70.57523437 62.8359375 71.38671875 C73.5390625 85.30078125 73.5390625 85.30078125 74.7734375 86.90551758 C75.59368713 87.97180944 76.41400002 89.03805263 77.234375 90.10424805 C79.39472235 92.91210517 81.55378878 95.72093456 83.7109375 98.53125 C84.37996094 99.40233398 84.37996094 99.40233398 85.0625 100.29101562 C86.2998068 101.90209218 87.53663757 103.51353429 88.7734375 105.125 C90.24567681 107.02599672 91.75081781 108.90200638 93.2890625 110.75 C95 113 95 113 95 115 C63.27011853 117.6567795 63.27011853 117.6567795 55.39355469 113.68603516 C51.57952196 110.10381155 49.91342586 105.52799647 48.13769531 100.69726562 C45.92650232 95.45493512 42.57120554 90.85189689 39.4375 86.125 C38.24465103 84.25517972 37.05556155 82.38295319 35.87109375 80.5078125 C34.2715797 77.98617772 32.65660058 75.48490087 31 73 C30.67 86.86 30.34 100.72 30 115 C20.1 115 10.2 115 0 115 C0 77.05 0 39.1 0 0 Z " fill="#1E9CA6" transform="translate(598,117)"/>
<path d="M0 0 C1.39120471 0.00015906 2.78241534 0.00585033 4.17358398 0.01586914 C4.90463852 0.01728409 5.63569305 0.01869904 6.38890076 0.02015686 C8.73253406 0.02577131 11.07607313 0.03832617 13.41967773 0.05102539 C15.00496282 0.05603853 16.59024939 0.06060176 18.17553711 0.06469727 C22.06945383 0.07574542 25.96329979 0.09301967 29.85717773 0.11352539 C33.6104758 8.95904729 37.12639178 17.88456108 40.54467773 26.86352539 C40.94762054 27.91902588 40.94762054 27.91902588 41.35870361 28.99584961 C47.48023947 45.03146262 53.49582713 61.10709165 59.50048828 77.18676758 C60.23124431 79.1415649 60.96211772 81.09631835 61.69311523 83.05102539 C62.21918114 84.45967865 62.21918114 84.45967865 62.75587463 85.89678955 C64.45322598 90.42725403 66.17471232 94.94575576 67.9519043 99.44555664 C68.28018219 100.27772705 68.60846008 101.10989746 68.94668579 101.96728516 C69.56215984 103.52045959 70.18214479 105.07185707 70.8074646 106.62109375 C71.9915671 109.60490011 72.85717773 111.87156193 72.85717773 115.11352539 C62.29717773 115.11352539 51.73717773 115.11352539 40.85717773 115.11352539 C38.54717773 108.84352539 36.23717773 102.57352539 33.85717773 96.11352539 C19.99717773 95.78352539 6.13717773 95.45352539 -8.14282227 95.11352539 C-8.47282227 96.76352539 -8.80282227 98.41352539 -9.14282227 100.11352539 C-9.57651478 101.38304427 -10.04544258 102.64121339 -10.55297852 103.88305664 C-10.79411377 104.47965088 -11.03524902 105.07624512 -11.28369141 105.69091797 C-11.58782959 106.42850342 -11.89196777 107.16608887 -12.20532227 107.92602539 C-13.17469727 110.29790039 -14.14407227 112.66977539 -15.14282227 115.11352539 C-25.70282227 115.11352539 -36.26282227 115.11352539 -47.14282227 115.11352539 C-45.37721443 109.22816594 -43.71903124 103.74223196 -41.49047852 98.09008789 C-41.11221169 97.12463547 -41.11221169 97.12463547 -40.7263031 96.13967896 C-40.17767893 94.74029306 -39.62733898 93.34157883 -39.07543945 91.94348145 C-37.52788862 88.02184695 -35.99458852 84.09463248 -34.45922852 80.16821289 C-33.95650925 78.88400452 -33.95650925 78.88400452 -33.44363403 77.57385254 C-29.24360252 66.83431907 -25.10520495 56.07103457 -20.9670105 45.30755615 C-19.6697227 41.93348971 -18.37127399 38.55987165 -17.07275391 35.1862793 C-16.25218721 33.05271945 -15.4317891 30.91909476 -14.61157227 28.78540039 C-14.02544411 27.26098831 -14.02544411 27.26098831 -13.42747498 25.70578003 C-10.86567345 19.03064268 -8.33637311 12.34407612 -5.88000488 5.6293335 C-3.85060748 0.13909209 -3.85060748 0.13909209 0 0 Z " fill="#1E9CA6" transform="translate(1382.142822265625,269.886474609375)"/>
<path d="M0 0 C9.9 0 19.8 0 30 0 C30.01458252 2.19454834 30.02916504 4.38909668 30.04418945 6.65014648 C30.09467966 13.92653574 30.16129968 21.20271423 30.23571491 28.47889614 C30.28031322 32.88752325 30.31959214 37.29606019 30.34643555 41.70483398 C30.37257425 45.96495682 30.41305015 50.2247307 30.46318626 54.48463631 C30.47978388 56.10435689 30.49134218 57.72413772 30.49761391 59.3439312 C30.53182921 73.20007322 30.53182921 73.20007322 35.8125 85.875 C39.98813885 89.93133489 43.62996958 91.199117 49.375 91.4375 C55.97293302 91.24001085 60.36728204 89.27694526 65.3125 85 C70.72397158 75.37960608 70.46728 64.23836028 70.51171875 53.515625 C70.52860487 51.9633445 70.54676025 50.41107735 70.56611633 48.85882568 C70.6131964 44.81482111 70.64327518 40.77087064 70.66955566 36.72668457 C70.70487331 31.85212883 70.76176385 26.9777808 70.81494904 22.10339355 C70.89296931 14.73562387 70.94394665 7.36811675 71 0 C80.9 0 90.8 0 101 0 C101.0454358 9.4066081 101.08202157 18.81314166 101.10362434 28.21983528 C101.11399983 32.58914437 101.12804304 36.95837358 101.15087891 41.32763672 C101.17283231 45.55518234 101.18461532 49.78265181 101.18975449 54.01025009 C101.19341033 55.6119392 101.20054734 57.21362481 101.21146011 58.81528091 C101.32405883 76.04856206 101.07141414 92.6196959 88.48828125 105.73828125 C75.00029054 117.99816605 58.11122115 118.73664552 40.79150391 118.17480469 C28.58089171 117.41017303 17.49840258 112.03447411 9.0625 103.1875 C-0.82931241 90.88189604 -0.29083115 74.81966767 -0.1953125 59.86328125 C-0.19157487 58.13022527 -0.18873145 56.39716714 -0.18673706 54.66410828 C-0.1791596 50.13829549 -0.15956281 45.61261437 -0.1373291 41.08685303 C-0.11674271 36.4544045 -0.10770818 31.82193437 -0.09765625 27.18945312 C-0.07631042 18.12623541 -0.04117742 9.06314933 0 0 Z " fill="#1E9CA6" transform="translate(883,270)"/>
<path d="M0 0 C1.75638615 0.92548039 3.50888878 1.85859332 5.25 2.8125 C4.67022443 6.28848164 3.78478895 9.10354698 2.18359375 12.23828125 C1.78076172 13.03427734 1.37792969 13.83027344 0.96289062 14.65039062 C0.54201172 15.46701172 0.12113281 16.28363281 -0.3125 17.125 C-0.94961914 18.37893555 -0.94961914 18.37893555 -1.59960938 19.65820312 C-2.6443479 21.71246426 -3.69459762 23.76370292 -4.75 25.8125 C-7.69420614 25.11857161 -10.12874489 24.2190152 -12.8125 22.8125 C-18.81429725 19.67912409 -24.02424096 19.14088355 -30.75 19.8125 C-34.43675314 21.12830851 -34.43675314 21.12830851 -36.75 23.8125 C-38.16349769 27.20668221 -38.16349769 27.20668221 -37.75 30.8125 C-33.0303053 37.810668 -23.86183093 39.50604359 -16.1875 41.75 C-5.66554887 44.94857435 3.51746847 49.96523526 8.94921875 59.9296875 C10.7889246 64.54619168 10.74338067 69.15072138 10.6875 74.0625 C10.67920166 74.99473389 10.67090332 75.92696777 10.66235352 76.88745117 C10.38445071 88.21421553 7.47649513 95.90602871 -0.75 103.8125 C-1.4925 104.534375 -2.235 105.25625 -3 106 C-16.52063171 114.91132545 -32.93682439 117.31045107 -48.7421875 114.125 C-57.65766158 111.74224524 -66.06944215 107.9328719 -73.75 102.8125 C-73.1633247 99.06186435 -72.10059992 96.253224 -70.24609375 92.94921875 C-69.50649414 91.61987305 -69.50649414 91.61987305 -68.75195312 90.26367188 C-68.23568359 89.35166016 -67.71941406 88.43964844 -67.1875 87.5 C-66.40729492 86.10297852 -66.40729492 86.10297852 -65.61132812 84.67773438 C-64.33023026 82.38586205 -63.04297895 80.09768387 -61.75 77.8125 C-61.07195313 78.27140625 -60.39390625 78.7303125 -59.6953125 79.203125 C-50.56825081 85.22041221 -42.03845888 90.45020388 -30.75 88.8125 C-27.03955416 87.39578432 -24.27028883 85.8856727 -21.75 82.8125 C-21.07235016 79.74613445 -21.15759852 76.89186996 -21.75 73.8125 C-26.27135192 68.75922432 -32.95593893 66.60498023 -39.375 64.9375 C-51.63617647 61.48419397 -61.3683788 58.40820425 -67.90234375 46.7578125 C-71.38523317 38.25121623 -71.01044818 27.53347951 -68.125 18.9375 C-63.17131764 7.28075795 -56.3751365 0.45879619 -44.73046875 -4.42578125 C-30.74716648 -9.80397443 -12.9876214 -6.38067811 0 0 Z " fill="#1F9DA7" transform="translate(970.75,120.1875)"/>
<path d="M0 0 C21.78 0 43.56 0 66 0 C66 8.25 66 16.5 66 25 C54.12 25 42.24 25 30 25 C30 31.6 30 38.2 30 45 C41.22 45 52.44 45 64 45 C64 53.25 64 61.5 64 70 C52.78 70 41.56 70 30 70 C30 76.6 30 83.2 30 90 C41.88 90 53.76 90 66 90 C66 98.25 66 106.5 66 115 C44.22 115 22.44 115 0 115 C0 77.05 0 39.1 0 0 Z " fill="#1E9DA6" transform="translate(1028,117)"/>
<path d="M0 0 C7.3662331 5.99549393 13.91472723 13.4442384 15.30908203 23.15185547 C16.43204696 36.4838978 14.89206655 51.20052342 6.609375 62.1484375 C-1.37562308 71.3350615 -13.43575332 77.19593317 -25.578125 78.3359375 C-39.6968546 78.48613675 -48.83501108 74.91806385 -58.9375 65.12109375 C-68.1055173 55.34055805 -71.52124063 44.02713979 -71.3125 30.78515625 C-70.30005482 18.52191404 -63.3218934 7.41279301 -54.5703125 -0.953125 C-37.61176388 -14.458109 -16.89908804 -12.22312679 0 0 Z " fill="#FDFEFE" transform="translate(246,106)"/>
<path d="M0 0 C4.21703941 0.51115629 6.22389822 2.85745778 9.1875 5.75 C54.39783528 48.54770236 112.44940845 67.70422612 173 75 C173 75.99 173 76.98 173 78 C172.10087891 78.11214844 172.10087891 78.11214844 171.18359375 78.2265625 C163.79423884 79.29870219 156.70661072 81.06885082 149.5 83 C133.01853628 87.39321607 117.25035911 89.19230468 100.1875 89.125 C98.87885986 89.12016602 97.57021973 89.11533203 96.22192383 89.11035156 C92.60453048 89.09178811 88.98736917 89.05939436 85.37011719 89.02282715 C82.88608653 88.99890287 80.4020456 88.98037298 77.91796875 88.96191406 C73.53508505 88.92611458 69.15303497 88.86584199 64.7706604 88.79046631 C63.06499932 88.7637464 61.35922669 88.74331692 59.65341187 88.72955322 C49.30193826 88.63754239 40.20945613 88.3551775 31.44921875 82.2109375 C30.86785156 81.60507812 30.28648437 80.99921875 29.6875 80.375 C29.09324219 79.78460938 28.49898437 79.19421875 27.88671875 78.5859375 C21.49422769 69.82438661 18.56073777 59.31917764 15.25 49.125 C14.72743128 47.53383841 14.20431279 45.94285727 13.68066406 44.35205078 C12.36345611 40.34281999 11.05629374 36.33040047 9.75292969 32.31665039 C9.02754142 30.08474076 8.29946248 27.85373006 7.5703125 25.62304688 C6.29124927 21.70884016 5.01909862 17.7924499 3.75 13.875 C3.3674707 12.69695801 2.98494141 11.51891602 2.59082031 10.30517578 C2.24631836 9.23251465 1.90181641 8.15985352 1.546875 7.0546875 C1.09586426 5.65452393 1.09586426 5.65452393 0.63574219 4.22607422 C0 2 0 2 0 0 Z " fill="#FBFDFD" transform="translate(114,314)"/>
<path d="M0 0 C21.78 0 43.56 0 66 0 C66 8.25 66 16.5 66 25 C54.12 25 42.24 25 30 25 C30 31.6 30 38.2 30 45 C40.89 45 51.78 45 63 45 C63 53.25 63 61.5 63 70 C52.11 70 41.22 70 30 70 C30 84.85 30 99.7 30 115 C20.1 115 10.2 115 0 115 C0 77.05 0 39.1 0 0 Z " fill="#1E9CA6" transform="translate(600,270)"/>
<path d="M0 0 C26.4 0 52.8 0 80 0 C80 8.25 80 16.5 80 25 C71.75 25 63.5 25 55 25 C55 54.7 55 84.4 55 115 C45.1 115 35.2 115 25 115 C25 85.3 25 55.6 25 25 C16.75 25 8.5 25 0 25 C0 16.75 0 8.5 0 0 Z " fill="#1D9CA6" transform="translate(1479,270)"/>
<path d="M0 0 C9.9 0 19.8 0 30 0 C30 37.95 30 75.9 30 115 C20.1 115 10.2 115 0 115 C0 77.05 0 39.1 0 0 Z " fill="#1D9CA6" transform="translate(1602,270)"/>
<path d="M0 0 C9.18650696 4.71210479 15.27555416 11.44384998 18.56640625 21.31640625 C19.55450197 32.72000281 17.6118258 42.5584944 10.25390625 51.53515625 C3.18355437 58.99830546 -4.67823373 62.30550546 -14.93359375 62.75390625 C-25.29852738 62.3889438 -32.41485417 57.66594708 -39.43359375 50.31640625 C-45.52352932 43.10464045 -47.10298346 33.47292828 -46.8515625 24.2421875 C-45.81128981 16.96027868 -41.62794127 10.39532383 -36.43359375 5.31640625 C-24.76942016 -2.70391807 -13.59195758 -5.67815404 0 0 Z " fill="#FCFEFE" transform="translate(1755.43359375,297.68359375)"/>
<path d="M0 0 C9.18650696 4.71210479 15.27555416 11.44384998 18.56640625 21.31640625 C19.55450197 32.72000281 17.6118258 42.5584944 10.25390625 51.53515625 C3.18355437 58.99830546 -4.67823373 62.30550546 -14.93359375 62.75390625 C-25.29852738 62.3889438 -32.41485417 57.66594708 -39.43359375 50.31640625 C-45.52352932 43.10464045 -47.10298346 33.47292828 -46.8515625 24.2421875 C-45.81128981 16.96027868 -41.62794127 10.39532383 -36.43359375 5.31640625 C-24.76942016 -2.70391807 -13.59195758 -5.67815404 0 0 Z " fill="#FCFEFE" transform="translate(787.43359375,297.68359375)"/>
<path d="M0 0 C6.97905215 4.219892 12.07769764 9.631131 15.375 17.125 C16.93894031 26.82142995 17.25212536 36.40176251 12 45 C6.44915381 52.5602525 0.26063811 58.23068923 -8.875 60.8125 C-10.421875 60.9053125 -10.421875 60.9053125 -12 61 C-12.82371094 61.061875 -13.64742187 61.12375 -14.49609375 61.1875 C-23.94881989 61.60703847 -30.776794 58.56762607 -38.14453125 52.7734375 C-43.67556415 47.48693448 -47.71405246 40.73217239 -48.30078125 33.07421875 C-48.46265101 21.18218728 -47.59090473 13.99410503 -39.18359375 5.046875 C-28.20627016 -5.24313853 -13.27300791 -7.33088945 0 0 Z " fill="#FCFDFD" transform="translate(808,146)"/>
<path d="M0 0 C23.5708746 4.67309279 52.75555014 13.02385516 67.375 33.375 C79.28756592 52.61058803 75.58208429 75.07668323 70.77490234 95.94921875 C69.02969299 102.82008709 66.66032869 109.4360275 64 116 C63.34 116 62.68 116 62 116 C61.89042969 115.4237085 61.78085937 114.84741699 61.66796875 114.25366211 C56.18836152 86.01196692 46.79804665 58.61203378 30 35 C29.55962402 34.37319336 29.11924805 33.74638672 28.66552734 33.10058594 C20.15570343 21.07731472 10.45662305 10.35410714 0 0 Z " fill="#FBFDFD" transform="translate(330,44)"/>
<path d="M0 0 C0.495 1.485 0.495 1.485 1 3 C-1.33129184 5.18968407 -3.66514595 7.37661486 -6 9.5625 C-7.04111938 10.5381189 -7.04111938 10.5381189 -8.10327148 11.53344727 C-8.78977783 12.17467529 -9.47628418 12.81590332 -10.18359375 13.4765625 C-11.13190063 14.36335693 -11.13190063 14.36335693 -12.09936523 15.26806641 C-14.04697311 17.04280376 -16.04288178 18.74547136 -18.0625 20.4375 C-54.05600498 51.6786158 -77.88078319 98.98979323 -91 144 C-99.67837188 130.98244218 -95.53139238 108.672545 -92.83862305 94.25268555 C-90.07446193 80.72666143 -86.35309599 68.18029772 -78 57 C-77.44441406 56.22527344 -76.88882813 55.45054688 -76.31640625 54.65234375 C-64.80806549 39.15727986 -48.79577864 28.28204942 -33.08300781 17.44775391 C-31.08949801 16.06220384 -29.11789067 14.64991733 -27.1484375 13.23046875 C-18.5635793 7.14728488 -10.00295578 3.23354418 0 0 Z " fill="#FAFCFD" transform="translate(178,60)"/>
<path d="M0 0 C21.43601896 0 21.43601896 0 30.78125 8.6484375 C37.21770473 15.33035025 40.15220685 22.80235981 40.4375 32.0625 C40.06982829 41.53617438 37.29166204 50.54842509 30.578125 57.46484375 C21.71136963 64.68554305 10.94547767 65 0 65 C0 43.55 0 22.1 0 0 Z " fill="#FCFDFD" transform="translate(1232,295)"/>
<path d="M0 0 C4.05949084 2.27234447 6.60375757 5.14501515 8.6875 9.3125 C9.55339246 15.27478808 8.74075139 19.66413003 5.2265625 24.58203125 C1.36507439 28.92375519 -2.46489905 30.52895869 -8.25 30.875 C-13.60859267 30.63811099 -17.34687365 28.88822065 -21.3125 25.3125 C-24.67198192 20.90317997 -24.88791414 16.39451772 -24.7265625 11.00390625 C-24.07964864 6.79896613 -22.40157485 4.18092665 -19.3125 1.3125 C-13.31706227 -2.9115584 -6.5672303 -3.00845187 0 0 Z " fill="#26A0A9" transform="translate(982.3125,422.6875)"/>
<path d="M0 0 C4.05949084 2.27234447 6.60375757 5.14501515 8.6875 9.3125 C9.55339246 15.27478808 8.74075139 19.66413003 5.2265625 24.58203125 C2.03889218 28.16613773 -0.97716954 29.95148273 -5.73828125 30.6875 C-11.77290099 30.98053161 -15.542469 30.03312418 -20.3125 26.3125 C-24.28166462 21.32560087 -24.96044362 17.23383361 -24.69140625 10.8984375 C-23.90217988 5.51217093 -21.35666449 3.09050491 -17.125 -0.0625 C-11.42205608 -2.96271507 -5.74450138 -2.6159904 0 0 Z " fill="#26A0AA" transform="translate(729.3125,422.6875)"/>
<path d="M0 0 C2.97 0 5.94 0 9 0 C9.27714844 1.07121094 9.55429687 2.14242188 9.83984375 3.24609375 C10.20554924 4.64327627 10.57144446 6.04040915 10.9375 7.4375 C11.11990234 8.14455078 11.30230469 8.85160156 11.49023438 9.58007812 C12.18149374 13.07574861 12.18149374 13.07574861 14 16 C14.34933594 14.92878906 14.69867187 13.85757812 15.05859375 12.75390625 C15.51807145 11.35671896 15.97771546 9.95958635 16.4375 8.5625 C16.66759766 7.85544922 16.89769531 7.14839844 17.13476562 6.41992188 C18.88671875 1.11328125 18.88671875 1.11328125 20 0 C21.99958364 -0.04080783 24.00045254 -0.04254356 26 0 C26.63196384 1.49707939 27.25514393 2.99786703 27.875 4.5 C28.22304688 5.3353125 28.57109375 6.170625 28.9296875 7.03125 C30.2331356 10.64665349 31.11314717 14.26083671 32 18 C32.34933594 16.78441406 32.69867187 15.56882812 33.05859375 14.31640625 C33.5180586 12.73172137 33.9777033 11.14708863 34.4375 9.5625 C34.66759766 8.76005859 34.89769531 7.95761719 35.13476562 7.13085938 C36.88671875 1.11328125 36.88671875 1.11328125 38 0 C40.67058851 -0.14115161 43.32432238 -0.04247107 46 0 C43.4062076 10.12489139 40.18602066 20.05012965 37 30 C34.03 30 31.06 30 28 30 C27.32815382 27.89748139 26.66269032 25.79292237 26 23.6875 C25.443125 21.92986328 25.443125 21.92986328 24.875 20.13671875 C24 17 24 17 24 14 C23.34 14 22.68 14 22 14 C21.83564453 14.85271484 21.83564453 14.85271484 21.66796875 15.72265625 C20.62061834 20.82316758 19.20728247 25.284442 17 30 C14.36 30 11.72 30 9 30 C6.88429228 23.70413222 4.82325449 17.39265301 2.8125 11.0625 C2.53986328 10.21365234 2.26722656 9.36480469 1.98632812 8.49023438 C1.72916016 7.68005859 1.47199219 6.86988281 1.20703125 6.03515625 C0.9747583 5.3069165 0.74248535 4.57867676 0.50317383 3.82836914 C0 2 0 2 0 0 Z " fill="#25A0A9" transform="translate(905,422)"/>
<path d="M0 0 C2.64 0 5.28 0 8 0 C9.65 5.94 11.3 11.88 13 18 C14.98 12.06 16.96 6.12 19 0 C21.31 0 23.62 0 26 0 C27.65 5.28 29.3 10.56 31 16 C31.6496875 14.2675 31.6496875 14.2675 32.3125 12.5 C33.875 8.33333333 35.4375 4.16666667 37 0 C39.64 0 42.28 0 45 0 C44.23835931 4.36673997 42.96694149 8.53431088 41.625 12.75 C41.40239502 13.45576172 41.17979004 14.16152344 40.95043945 14.88867188 C39.35091471 19.94310043 37.70337265 24.97953324 36 30 C33.03 30 30.06 30 27 30 C26.72285156 29.00097656 26.44570313 28.00195312 26.16015625 26.97265625 C25.79444451 25.66922209 25.42854962 24.36583931 25.0625 23.0625 C24.88009766 22.40314453 24.69769531 21.74378906 24.50976562 21.06445312 C23.77403899 17.76178827 23.77403899 17.76178827 22 15 C20.35 19.95 18.7 24.9 17 30 C14.03 30 11.06 30 8 30 C6.85543097 26.21127865 5.71625345 22.42098253 4.58203125 18.62915039 C4.00545178 16.70568707 3.42462069 14.78349989 2.84375 12.86132812 C2.4828125 11.65283203 2.121875 10.44433594 1.75 9.19921875 C1.41484375 8.08377686 1.0796875 6.96833496 0.734375 5.8190918 C0 3 0 3 0 0 Z " fill="#249FA9" transform="translate(745,422)"/>
<path d="M0 0 C2.05078125 0.03255208 4.1015625 0.06510417 6.15234375 0.09765625 C6.50167969 1.02449219 6.85101562 1.95132812 7.2109375 2.90625 C7.66597656 4.10378906 8.12101562 5.30132812 8.58984375 6.53515625 C9.26853516 8.32759766 9.26853516 8.32759766 9.9609375 10.15625 C10.86682635 12.94211348 10.86682635 12.94211348 12.15234375 14.09765625 C12.50167969 13.17082031 12.85101562 12.24398438 13.2109375 11.2890625 C13.66597656 10.09152344 14.12101562 8.89398438 14.58984375 7.66015625 C15.04230469 6.46519531 15.49476562 5.27023437 15.9609375 4.0390625 C17.15234375 1.09765625 17.15234375 1.09765625 18.15234375 0.09765625 C20.82293226 -0.04349536 23.47666613 0.05518518 26.15234375 0.09765625 C28.22237144 10.12231863 29.68805437 19.85126991 30.15234375 30.09765625 C27.51234375 30.09765625 24.87234375 30.09765625 22.15234375 30.09765625 C21.49234375 25.14765625 20.83234375 20.19765625 20.15234375 15.09765625 C18.34089992 19.6534011 18.34089992 19.6534011 16.56347656 24.22241211 C14.63628589 28.89086537 14.63628589 28.89086537 11.94921875 30.0390625 C11.35625 30.05839844 10.76328125 30.07773437 10.15234375 30.09765625 C9.81460937 29.33839844 9.476875 28.57914062 9.12890625 27.796875 C8.68289063 26.80300781 8.236875 25.80914062 7.77734375 24.78515625 C7.33648438 23.79902344 6.895625 22.81289063 6.44140625 21.796875 C5.16991617 18.97020418 5.16991617 18.97020418 3.15234375 16.09765625 C2.49234375 20.71765625 1.83234375 25.33765625 1.15234375 30.09765625 C-1.48765625 30.09765625 -4.12765625 30.09765625 -6.84765625 30.09765625 C-6.29548815 23.36120546 -5.38393645 16.71139612 -4.34765625 10.03515625 C-4.21705811 9.17752686 -4.08645996 8.31989746 -3.9519043 7.4362793 C-2.79865057 0.14792022 -2.79865057 0.14792022 0 0 Z " fill="#259FA9" transform="translate(1265.84765625,421.90234375)"/>
<path d="M0 0 C2.05078125 0.03255208 4.1015625 0.06510417 6.15234375 0.09765625 C6.50167969 1.02449219 6.85101562 1.95132812 7.2109375 2.90625 C7.66597656 4.10378906 8.12101563 5.30132812 8.58984375 6.53515625 C9.26853516 8.32759766 9.26853516 8.32759766 9.9609375 10.15625 C10.86682635 12.94211348 10.86682635 12.94211348 12.15234375 14.09765625 C12.50167969 13.17082031 12.85101562 12.24398438 13.2109375 11.2890625 C13.66597656 10.09152344 14.12101563 8.89398438 14.58984375 7.66015625 C15.04230469 6.46519531 15.49476563 5.27023437 15.9609375 4.0390625 C17.15234375 1.09765625 17.15234375 1.09765625 18.15234375 0.09765625 C20.82293226 -0.04349536 23.47666613 0.05518518 26.15234375 0.09765625 C28.22237144 10.12231863 29.68805437 19.85126991 30.15234375 30.09765625 C27.51234375 30.09765625 24.87234375 30.09765625 22.15234375 30.09765625 C21.49234375 25.14765625 20.83234375 20.19765625 20.15234375 15.09765625 C18.34089992 19.6534011 18.34089992 19.6534011 16.56347656 24.22241211 C14.63628589 28.89086537 14.63628589 28.89086537 11.94921875 30.0390625 C11.35625 30.05839844 10.76328125 30.07773437 10.15234375 30.09765625 C9.81460938 29.33839844 9.476875 28.57914062 9.12890625 27.796875 C8.68289063 26.80300781 8.236875 25.80914062 7.77734375 24.78515625 C7.33648438 23.79902344 6.895625 22.81289063 6.44140625 21.796875 C5.16991617 18.97020418 5.16991617 18.97020418 3.15234375 16.09765625 C2.49234375 20.71765625 1.83234375 25.33765625 1.15234375 30.09765625 C-1.48765625 30.09765625 -4.12765625 30.09765625 -6.84765625 30.09765625 C-6.29548815 23.36120546 -5.38393645 16.71139612 -4.34765625 10.03515625 C-4.21705811 9.17752686 -4.08645996 8.31989746 -3.9519043 7.4362793 C-2.79865057 0.14792022 -2.79865057 0.14792022 0 0 Z " fill="#259FA9" transform="translate(1005.84765625,421.90234375)"/>
<path d="M0 0 C2.97 0 5.94 0 9 0 C10.65 4.29 12.3 8.58 14 13 C16.27694716 10.72305284 16.92947387 8.93161848 18.0625 5.9375 C19.90277778 1.09722222 19.90277778 1.09722222 21 0 C23.67058851 -0.14115161 26.32432238 -0.04247107 29 0 C29.67659781 3.68574858 30.33947761 7.37383949 31 11.0625 C31.19078125 12.10083984 31.3815625 13.13917969 31.578125 14.20898438 C32.52850018 19.55484477 33.24648667 24.56959064 33 30 C30.36 30 27.72 30 25 30 C24.34 24.72 23.68 19.44 23 14 C21.18813622 18.88514031 21.18813622 18.88514031 19.41113281 23.78295898 C18.703125 25.62109375 18.703125 25.62109375 17 29 C14.796875 29.97265625 14.796875 29.97265625 13 30 C7 18.26213592 7 18.26213592 7 14 C6.34 14 5.68 14 5 14 C5.01160156 14.65226562 5.02320313 15.30453125 5.03515625 15.9765625 C5.08470994 20.7761914 4.99413751 25.27784685 4 30 C1.36 30 -1.28 30 -4 30 C-3.48612661 19.81113109 -1.90534337 10.0060485 0 0 Z " fill="#25A0A9" transform="translate(631,422)"/>
<path d="M0 0 C8 0 8 0 10.1015625 1.46875 C10.60429688 2.1390625 11.10703125 2.809375 11.625 3.5 C12.18574219 4.221875 12.74648437 4.94375 13.32421875 5.6875 C13.87722656 6.450625 14.43023438 7.21375 15 8 C15.87591797 9.1446875 15.87591797 9.1446875 16.76953125 10.3125 C18.20218496 12.19139011 19.60421464 14.09356146 21 16 C21.33 10.72 21.66 5.44 22 0 C24.64 0 27.28 0 30 0 C30 9.9 30 19.8 30 30 C22 30 22 30 19.8984375 28.53125 C19.39570312 27.8609375 18.89296875 27.190625 18.375 26.5 C17.81425781 25.778125 17.25351563 25.05625 16.67578125 24.3125 C16.12277344 23.549375 15.56976562 22.78625 15 22 C14.41605469 21.236875 13.83210938 20.47375 13.23046875 19.6875 C11.79781504 17.80860989 10.39578536 15.90643854 9 14 C8.67 19.28 8.34 24.56 8 30 C5.36 30 2.72 30 0 30 C0 20.1 0 10.2 0 0 Z " fill="#239EA8" transform="translate(1837,422)"/>
<path d="M0 0 C8 0 8 0 10.86328125 2.484375 C11.70475084 3.5536603 12.52101393 4.64320647 13.3125 5.75 C13.72822266 6.28882813 14.14394531 6.82765625 14.57226562 7.3828125 C15.7389086 8.90371431 16.870554 10.45127476 18 12 C18.99 13.32 19.98 14.64 21 16 C21.33 10.72 21.66 5.44 22 0 C24.64 0 27.28 0 30 0 C30 9.9 30 19.8 30 30 C22 30 22 30 19.13671875 27.515625 C18.29524916 26.4463397 17.47898607 25.35679353 16.6875 24.25 C16.27177734 23.71117187 15.85605469 23.17234375 15.42773438 22.6171875 C14.2610914 21.09628569 13.129446 19.54872524 12 18 C11.01 16.68 10.02 15.36 9 14 C8.67 19.28 8.34 24.56 8 30 C5.36 30 2.72 30 0 30 C0 20.1 0 10.2 0 0 Z " fill="#239FA8" transform="translate(1325,422)"/>
<path d="M0 0 C8 0 8 0 10.86328125 2.484375 C11.70475084 3.5536603 12.52101393 4.64320647 13.3125 5.75 C13.72822266 6.28882813 14.14394531 6.82765625 14.57226562 7.3828125 C15.7389086 8.90371431 16.870554 10.45127476 18 12 C18.99 13.32 19.98 14.64 21 16 C21.33 10.72 21.66 5.44 22 0 C24.64 0 27.28 0 30 0 C30 9.9 30 19.8 30 30 C22 30 22 30 19.13671875 27.515625 C18.29524916 26.4463397 17.47898607 25.35679353 16.6875 24.25 C16.27177734 23.71117187 15.85605469 23.17234375 15.42773438 22.6171875 C14.2610914 21.09628569 13.129446 19.54872524 12 18 C11.01 16.68 10.02 15.36 9 14 C8.67 19.28 8.34 24.56 8 30 C5.36 30 2.72 30 0 30 C0 20.1 0 10.2 0 0 Z " fill="#239FA8" transform="translate(1074,422)"/>
<path d="M0 0 C15.03225806 0 15.03225806 0 21.5625 4.9375 C23.88456849 9.88451548 23.80520097 14.64650164 23 20 C21.59067037 23.64017804 19.30594154 25.41535036 15.72265625 27.01953125 C10.08499985 28.92191453 6.24695565 29 0 29 C0 19.43 0 9.86 0 0 Z " fill="#FAFDFD" transform="translate(628,140)"/>
<path d="M0 0 C2.701875 -0.103125 5.40375 -0.20625 8.1875 -0.3125 C9.02949951 -0.35802002 9.87149902 -0.40354004 10.73901367 -0.45043945 C14.91533862 -0.52738351 16.56109638 -0.32931967 20.01953125 2.265625 C22.97441115 6.34534084 22.62675196 8.06432831 22 13 C20.6875 15.5 20.6875 15.5 19 17 C18.01 17 17.02 17 16 17 C16.6496875 17.85464844 17.299375 18.70929688 17.96875 19.58984375 C18.81262529 20.70563442 19.6563685 21.82152499 20.5 22.9375 C20.92925781 23.50146484 21.35851563 24.06542969 21.80078125 24.64648438 C25 28.88671875 25 28.88671875 25 30 C21.51969146 30.55712449 18.45459085 30.78653631 15 30 C12.33438593 27.32917965 10.64817393 24.37674659 9 21 C8.67 23.97 8.34 26.94 8 30 C5.36 30 2.72 30 0 30 C0 20.1 0 10.2 0 0 Z " fill="#249FA9" transform="translate(1566,422)"/>
<path d="M0 0 C2.701875 -0.103125 5.40375 -0.20625 8.1875 -0.3125 C9.02949951 -0.35802002 9.87149902 -0.40354004 10.73901367 -0.45043945 C14.91533862 -0.52738351 16.56109638 -0.32931967 20.01953125 2.265625 C22.97441115 6.34534084 22.62675196 8.06432831 22 13 C20.6875 15.5 20.6875 15.5 19 17 C18.01 17 17.02 17 16 17 C16.5775 17.77085937 17.155 18.54171875 17.75 19.3359375 C18.4925 20.33882813 19.235 21.34171875 20 22.375 C21.11375 23.87160156 21.11375 23.87160156 22.25 25.3984375 C24 28 24 28 24 30 C20.84005495 30.56879011 18.13414169 30.7797133 15 30 C12.40155657 27.30706772 10.6833009 24.32699471 9 21 C8.67 23.97 8.34 26.94 8 30 C5.36 30 2.72 30 0 30 C0 20.1 0 10.2 0 0 Z " fill="#239FA9" transform="translate(826,422)"/>
<path d="M0 0 C15 0 15 0 20 3 C22.34168764 6.51253146 22.49623677 7.86469356 22 12 C20.125 14.875 20.125 14.875 18 17 C17.34 17 16.68 17 16 17 C17.66703896 19.98312235 19.45862294 22.6103609 21.6875 25.1875 C24 28 24 28 24 30 C20.49238985 30.62388323 17.47556534 30.87923528 14 30 C11.29300222 26.98635013 9.62251077 23.69352046 8 20 C7.67 23.3 7.34 26.6 7 30 C4.69 30 2.38 30 0 30 C0 20.1 0 10.2 0 0 Z " fill="#239FA8" transform="translate(1939,422)"/>
<path d="M0 0 C3.3 0 6.6 0 10 0 C11.4304204 3.78795106 12.8543979 7.57825448 14.27246094 11.37084961 C14.75572265 12.66057458 15.24073669 13.94964438 15.72753906 15.23803711 C16.42713915 17.09054958 17.11991233 18.94563569 17.8125 20.80078125 C18.23144531 21.91622314 18.65039062 23.03166504 19.08203125 24.1809082 C20 27 20 27 20 30 C17.36 30 14.72 30 12 30 C11.505 27.525 11.505 27.525 11 25 C7.04 25 3.08 25 -1 25 C-1.33 26.65 -1.66 28.3 -2 30 C-4.97 30 -7.94 30 -11 30 C-7.4919583 19.93396968 -3.89988059 9.92226257 0 0 Z " fill="#249FA9" transform="translate(1808,422)"/>
<path d="M0 0 C1.23556641 0.01740234 1.23556641 0.01740234 2.49609375 0.03515625 C3.32238281 0.04417969 4.14867187 0.05320312 5 0.0625 C5.63808594 0.07410156 6.27617188 0.08570313 6.93359375 0.09765625 C8.50226565 4.20859309 10.06879113 8.32033921 11.63330078 12.43286133 C12.16623419 13.83282765 12.6997616 15.23256799 13.23388672 16.63208008 C13.9999231 18.63955019 14.76384477 20.64781371 15.52734375 22.65625 C15.98818359 23.86595459 16.44902344 25.07565918 16.92382812 26.32202148 C17.93359375 29.09765625 17.93359375 29.09765625 17.93359375 30.09765625 C14.96359375 30.09765625 11.99359375 30.09765625 8.93359375 30.09765625 C8.43859375 27.62265625 8.43859375 27.62265625 7.93359375 25.09765625 C3.97359375 25.09765625 0.01359375 25.09765625 -4.06640625 25.09765625 C-4.39640625 26.74765625 -4.72640625 28.39765625 -5.06640625 30.09765625 C-7.70640625 30.09765625 -10.34640625 30.09765625 -13.06640625 30.09765625 C-12.48743567 25.98310024 -11.55963377 22.3775675 -10.03515625 18.515625 C-9.63683594 17.50177734 -9.23851562 16.48792969 -8.828125 15.44335938 C-8.41175781 14.40115234 -7.99539063 13.35894531 -7.56640625 12.28515625 C-7.15003906 11.22361328 -6.73367188 10.16207031 -6.3046875 9.06835938 C-2.77089401 0.13094962 -2.77089401 0.13094962 0 0 Z " fill="#259FA9" transform="translate(1697.06640625,421.90234375)"/>
<path d="M0 0 C1.23556641 0.01740234 1.23556641 0.01740234 2.49609375 0.03515625 C3.32238281 0.04417969 4.14867187 0.05320312 5 0.0625 C5.63808594 0.07410156 6.27617188 0.08570313 6.93359375 0.09765625 C8.50226565 4.20859309 10.06879113 8.32033921 11.63330078 12.43286133 C12.16623419 13.83282765 12.6997616 15.23256799 13.23388672 16.63208008 C13.9999231 18.63955019 14.76384477 20.64781371 15.52734375 22.65625 C15.98818359 23.86595459 16.44902344 25.07565918 16.92382812 26.32202148 C17.93359375 29.09765625 17.93359375 29.09765625 17.93359375 30.09765625 C14.96359375 30.09765625 11.99359375 30.09765625 8.93359375 30.09765625 C8.43859375 27.62265625 8.43859375 27.62265625 7.93359375 25.09765625 C3.97359375 25.09765625 0.01359375 25.09765625 -4.06640625 25.09765625 C-4.39640625 26.74765625 -4.72640625 28.39765625 -5.06640625 30.09765625 C-7.70640625 30.09765625 -10.34640625 30.09765625 -13.06640625 30.09765625 C-12.48743567 25.98310024 -11.55963377 22.3775675 -10.03515625 18.515625 C-9.63683594 17.50177734 -9.23851562 16.48792969 -8.828125 15.44335938 C-8.41175781 14.40115234 -7.99539063 13.35894531 -7.56640625 12.28515625 C-7.15003906 11.22361328 -6.73367188 10.16207031 -6.3046875 9.06835938 C-2.77089401 0.13094962 -2.77089401 0.13094962 0 0 Z " fill="#259FA9" transform="translate(1377.06640625,421.90234375)"/>
<path d="M0 0 C2.701875 -0.103125 5.40375 -0.20625 8.1875 -0.3125 C9.02949951 -0.35802002 9.87149902 -0.40354004 10.73901367 -0.45043945 C14.87371548 -0.52661665 16.56574954 -0.31822505 20.01171875 2.20703125 C22.67550282 5.94888902 22.73504085 8.15681582 22.46875 12.6171875 C22 15 22 15 20.125 18.125 C15.57489097 20.85506542 12.25431584 20.35028772 7 20 C7 23.3 7 26.6 7 30 C4.69 30 2.38 30 0 30 C0 20.1 0 10.2 0 0 Z " fill="#219EA8" transform="translate(674,422)"/>
<path d="M0 0 C2.75931204 2.75931204 3.45888859 5.9938156 4.6015625 9.6328125 C4.8428891 10.38464813 5.0842157 11.13648376 5.33285522 11.91110229 C6.10266705 14.31393716 6.86391846 16.7193873 7.625 19.125 C8.14527203 20.75408562 8.66609855 22.38299426 9.1875 24.01171875 C10.46583354 28.00549329 11.73256001 32.00268927 13 36 C4.75 36 -3.5 36 -12 36 C-8.62298366 23.61760675 -8.62298366 23.61760675 -6.9921875 18.96484375 C-6.64542969 17.97162109 -6.29867188 16.97839844 -5.94140625 15.95507812 C-5.58949219 14.95927734 -5.23757813 13.96347656 -4.875 12.9375 C-4.51535156 11.90689453 -4.15570312 10.87628906 -3.78515625 9.81445312 C-1.15137363 2.30274725 -1.15137363 2.30274725 0 0 Z " fill="#F7FBFB" transform="translate(1395,306)"/>
<path d="M0 0 C1.41438406 1.57286684 2.75604401 3.21139996 4.0625 4.875 C7.1646343 8.76014891 10.32619695 12.52424939 13.6875 16.1875 C24.64212762 28.27404185 24.64212762 28.27404185 25 34 C21.296395 33.3469673 18.70149459 31.7128132 15.5625 29.68359375 C14.50160156 29.00103516 13.44070313 28.31847656 12.34765625 27.61523438 C11.24292969 26.89658203 10.13820313 26.17792969 9 25.4375 C7.92621094 24.74591797 6.85242188 24.05433594 5.74609375 23.34179688 C-1.54999721 18.63138436 -8.78654586 13.83577618 -16 9 C-13.39133427 6.26640822 -10.77486791 4.61227897 -7.4375 2.8125 C-6.46683594 2.28269531 -5.49617187 1.75289062 -4.49609375 1.20703125 C-2 0 -2 0 0 0 Z " fill="#F5FAFB" transform="translate(250,56)"/>
<path d="M0 0 C3 1 3 1 5 2 C4.1875 4.4375 4.1875 4.4375 3 7 C-0.1964086 8.06546953 -2.65747276 8.07427838 -6 8 C-5.67 8.99 -5.34 9.98 -5 11 C-3.23144489 11.91097994 -3.23144489 11.91097994 -1.125 12.5 C2.00502272 13.47019154 3.96464209 14.37151632 6 17 C6.8501196 23.48216194 6.8501196 23.48216194 4.98046875 26.8203125 C2.83324668 29.50596186 1.28395627 30.90534791 -2 32 C-7.70388605 32.37402531 -10.97143045 32.01714173 -16 29 C-15.34 27.02 -14.68 25.04 -14 23 C-10.25838897 23 -6.71046443 23.51338171 -3 24 C-3 23.01 -3 22.02 -3 21 C-3.92232422 20.63648438 -3.92232422 20.63648438 -4.86328125 20.265625 C-13.34653806 16.74784705 -13.34653806 16.74784705 -15 13 C-15.53110343 9.9461553 -15.62177339 7.99253455 -13.9453125 5.31640625 C-9.68956341 0.06597024 -6.5613888 -0.53946409 0 0 Z " fill="#29A1AB" transform="translate(1471,421)"/>
<path d="M0 0 C3 1 3 1 5 2 C4.1875 4.4375 4.1875 4.4375 3 7 C-0.1964086 8.06546953 -2.65747276 8.07427838 -6 8 C-5.67 8.99 -5.34 9.98 -5 11 C-3.23144489 11.91097994 -3.23144489 11.91097994 -1.125 12.5 C2.00502272 13.47019154 3.96464209 14.37151632 6 17 C6.8501196 23.48216194 6.8501196 23.48216194 4.98046875 26.8203125 C2.83324668 29.50596186 1.28395627 30.90534791 -2 32 C-7.70388605 32.37402531 -10.97143045 32.01714173 -16 29 C-15.34 27.02 -14.68 25.04 -14 23 C-10.25838897 23 -6.71046443 23.51338171 -3 24 C-3 23.01 -3 22.02 -3 21 C-3.92232422 20.63648438 -3.92232422 20.63648438 -4.86328125 20.265625 C-13.34653806 16.74784705 -13.34653806 16.74784705 -15 13 C-15.53110343 9.9461553 -15.62177339 7.99253455 -13.9453125 5.31640625 C-9.68956341 0.06597024 -6.5613888 -0.53946409 0 0 Z " fill="#29A1AB" transform="translate(874,421)"/>
<path d="M0 0 C5.94 0 11.88 0 18 0 C18 2.31 18 4.62 18 7 C15.03 7 12.06 7 9 7 C9 8.32 9 9.64 9 11 C11.64 11 14.28 11 17 11 C17 13.31 17 15.62 17 18 C14.03 18 11.06 18 8 18 C8 19.98 8 21.96 8 24 C11.3 24 14.6 24 18 24 C18 25.98 18 27.96 18 30 C12.06 30 6.12 30 0 30 C0 20.1 0 10.2 0 0 Z " fill="#2EA3AD" transform="translate(1910,422)"/>
<path d="M0 0 C5.61 0 11.22 0 17 0 C17 2.31 17 4.62 17 7 C14.03 7 11.06 7 8 7 C8 8.32 8 9.64 8 11 C9.299375 10.979375 10.59875 10.95875 11.9375 10.9375 C13.29165633 10.91600546 14.64756083 10.92851801 16 11 C17 12 17 12 17.125 15 C17 18 17 18 16 19 C13.32941149 19.14115161 10.67567762 19.04247107 8 19 C8 20.32 8 21.64 8 23 C10.97 23 13.94 23 17 23 C17 25.31 17 27.62 17 30 C11.39 30 5.78 30 0 30 C0 20.1 0 10.2 0 0 Z " fill="#2BA2AB" transform="translate(1046,422)"/>
<path d="M0 0 C2.64 0 5.28 0 8 0 C10.71970716 5.25184831 13.01095551 10.43067543 15 16 C15.86625 14.2675 15.86625 14.2675 16.75 12.5 C18.83333333 8.33333333 20.91666667 4.16666667 23 0 C25.64 0 28.28 0 31 0 C28.8197371 6.87947032 26.19745965 13.45055898 23.3125 20.0625 C22.89677734 21.02349609 22.48105469 21.98449219 22.05273438 22.97460938 C21.03848513 25.31787486 20.02085998 27.65960887 19 30 C16.69 30 14.38 30 12 30 C10.28639979 26.05097186 8.57752932 22.09994188 6.87304688 18.14697266 C6.29231849 16.80200831 5.71029255 15.45760347 5.12695312 14.11376953 C4.28956255 12.18406846 3.45683167 10.25241516 2.625 8.3203125 C2.12226562 7.15773926 1.61953125 5.99516602 1.1015625 4.79736328 C0 2 0 2 0 0 Z " fill="#249FA9" transform="translate(1596,422)"/>
<path d="M0 0 C0.99 0.66 1.98 1.32 3 2 C3.29296875 4.1640625 3.29296875 4.1640625 3.1875 6.625 C3.16042969 7.44226563 3.13335938 8.25953125 3.10546875 9.1015625 C3.07066406 9.72804688 3.03585937 10.35453125 3 11 C2.41347656 10.67644531 1.82695313 10.35289062 1.22265625 10.01953125 C-1.97334859 8.55352551 -4.53132541 8.68466595 -8 9 C-10.10242444 9.85219923 -10.10242444 9.85219923 -11 12 C-11.52960415 15.58042244 -11.65886567 18.75978228 -9.9375 22 C-6.89469216 23.57048147 -4.36193001 23.29490614 -1 23 C0.32 22.34 1.64 21.68 3 21 C3 24.3 3 27.6 3 31 C-1.60131537 32.53377179 -6.34779492 32.90474832 -11.00390625 31.31640625 C-15.39495493 29.0307848 -17.99832897 26.48374311 -20 22 C-20.7435095 16.4198462 -20.74905755 11.6778889 -18.4375 6.5 C-12.96461583 0.88678547 -7.7905712 -1.29842853 0 0 Z " fill="#2BA2AC" transform="translate(1673,421)"/>
<path d="M0 0 C1.17369141 -0.00386719 1.17369141 -0.00386719 2.37109375 -0.0078125 C4.5625 0.125 4.5625 0.125 7.5625 1.125 C7.5625 4.425 7.5625 7.725 7.5625 11.125 C6.5725 10.465 5.5825 9.805 4.5625 9.125 C1.84241595 8.65337252 -0.71442969 8.67115495 -3.4375 9.125 C-6.14165801 11.32212839 -6.38242745 12.68441961 -6.8125 16.125 C-6.38673246 19.53114032 -6.07519276 20.91274156 -3.4375 23.125 C1.233655 23.63458055 3.30104842 23.25572579 7.5625 21.125 C7.5625 24.425 7.5625 27.725 7.5625 31.125 C1.8701804 32.5480799 -2.38526704 33.17123641 -7.625 30.5 C-15.08125605 24.203606 -15.08125605 24.203606 -15.88671875 19.50390625 C-16.12047995 13.56314743 -15.55016106 9.68227307 -11.4375 5.125 C-7.52006878 1.67392964 -5.20473602 -0.01709273 0 0 Z " fill="#29A1AB" transform="translate(1892.4375,420.875)"/>
<path d="M0 0 C5.61 0 11.22 0 17 0 C17 2.31 17 4.62 17 7 C14.03 7 11.06 7 8 7 C8 8.65 8 10.3 8 12 C10.97 12 13.94 12 17 12 C17 13.98 17 15.96 17 18 C14.03 18 11.06 18 8 18 C8 19.65 8 21.3 8 23 C10.97 23 13.94 23 17 23 C17 25.31 17 27.62 17 30 C11.39 30 5.78 30 0 30 C0 20.1 0 10.2 0 0 Z " fill="#259FA9" transform="translate(1538,422)"/>
<path d="M0 0 C5.61 0 11.22 0 17 0 C17 2.31 17 4.62 17 7 C14.03 7 11.06 7 8 7 C8 8.65 8 10.3 8 12 C10.97 12 13.94 12 17 12 C17 13.98 17 15.96 17 18 C14.03 18 11.06 18 8 18 C8 19.65 8 21.3 8 23 C10.97 23 13.94 23 17 23 C17 25.31 17 27.62 17 30 C11.39 30 5.78 30 0 30 C0 20.1 0 10.2 0 0 Z " fill="#259FA9" transform="translate(1188,422)"/>
<path d="M0 0 C5.61 0 11.22 0 17 0 C17 2.31 17 4.62 17 7 C14.03 7 11.06 7 8 7 C8 8.65 8 10.3 8 12 C10.97 12 13.94 12 17 12 C17 13.98 17 15.96 17 18 C14.03 18 11.06 18 8 18 C8 19.65 8 21.3 8 23 C10.97 23 13.94 23 17 23 C17 25.31 17 27.62 17 30 C11.39 30 5.78 30 0 30 C0 20.1 0 10.2 0 0 Z " fill="#259FA9" transform="translate(798,422)"/>
<path d="M0 0 C5.94 0 11.88 0 18 0 C18 2.31 18 4.62 18 7 C14.7 7 11.4 7 8 7 C8 8.65 8 10.3 8 12 C10.97 12 13.94 12 17 12 C17 13.98 17 15.96 17 18 C14.03 18 11.06 18 8 18 C8 19.98 8 21.96 8 24 C10.97 24 13.94 24 17 24 C17 25.98 17 27.96 17 30 C11.39 30 5.78 30 0 30 C0 20.1 0 10.2 0 0 Z " fill="#27A0AA" transform="translate(1428,422)"/>
<path d="M0 0 C5.94 0 11.88 0 18 0 C18 2.31 18 4.62 18 7 C14.7 7 11.4 7 8 7 C8 8.65 8 10.3 8 12 C10.97 12 13.94 12 17 12 C17 13.98 17 15.96 17 18 C14.03 18 11.06 18 8 18 C8 19.98 8 21.96 8 24 C10.97 24 13.94 24 17 24 C17 25.98 17 27.96 17 30 C11.39 30 5.78 30 0 30 C0 20.1 0 10.2 0 0 Z " fill="#27A0AA" transform="translate(600,422)"/>
<path d="M0 0 C0 2.97 0 5.94 0 9 C-0.99 8.67 -1.98 8.34 -3 8 C-7.62588702 7.60671261 -7.62588702 7.60671261 -11.9375 9 C-13.65886567 12.24021772 -13.52960415 15.41957756 -13 19 C-12.10242444 21.14780077 -12.10242444 21.14780077 -10 22 C-6.27013478 22.26641894 -3.55353929 22.1845131 0 21 C0 23.97 0 26.94 0 30 C-3.51930896 31.75965448 -7.15905268 31.5268285 -11 31 C-15.77961087 29.20869225 -19.02097567 26.59594212 -21.5 22.125 C-23.11928195 18.24743694 -23.67768414 15.2167013 -23 11 C-20.84849347 5.94491164 -17.93631233 2.08965472 -12.97265625 -0.38671875 C-8.81987316 -1.67778201 -3.94046743 -1.97023371 0 0 Z " fill="#28A1AA" transform="translate(1789,422)"/>
<path d="M0 0 C0 2.97 0 5.94 0 9 C-0.99 8.67 -1.98 8.34 -3 8 C-8.01498119 7.53595521 -8.01498119 7.53595521 -12.4375 9.625 C-14.45932313 12.69817115 -14.52755517 14.38247881 -14 18 C-13.09764165 20.48105194 -13.09764165 20.48105194 -11 22 C-6.94329236 22.3687916 -3.96249762 21.99062441 0 21 C0 23.97 0 26.94 0 30 C-5.85542244 31.46385561 -9.98217504 31.90682158 -15.25 28.75 C-19.25144529 26.01013224 -21.45138539 23.64584384 -23 19 C-23.51175163 12.85898049 -22.96626883 8.83462355 -19 4 C-13.48084787 -1.66213535 -7.4024476 -2.46748253 0 0 Z " fill="#26A0AA" transform="translate(1527,422)"/>
<path d="M0 0 C7.26 0 14.52 0 22 0 C22 2.31 22 4.62 22 7 C19.69 7 17.38 7 15 7 C15 14.59 15 22.18 15 30 C12.36 30 9.72 30 7 30 C7 22.41 7 14.82 7 7 C4.69 7 2.38 7 0 7 C0 4.69 0 2.38 0 0 Z " fill="#2AA2AB" transform="translate(1398,422)"/>
<path d="M0 0 C2.64 0 5.28 0 8 0 C8 7.59 8 15.18 8 23 C10.97 23 13.94 23 17 23 C17 25.31 17 27.62 17 30 C11.39 30 5.78 30 0 30 C0 20.1 0 10.2 0 0 Z " fill="#27A0AA" transform="translate(1216,422)"/>
<path d="M0 0 C2.64 0 5.28 0 8 0 C8 7.92 8 15.84 8 24 C10.97 24 13.94 24 17 24 C17 25.98 17 27.96 17 30 C11.39 30 5.78 30 0 30 C0 20.1 0 10.2 0 0 Z " fill="#249FA9" transform="translate(1723,422)"/>
<path d="M0 0 C2 1 2 1 3.05322266 3.60449219 C3.4197998 4.74047852 3.78637695 5.87646484 4.1640625 7.046875 C4.56367188 8.284375 4.96328125 9.521875 5.375 10.796875 C5.57996094 11.44591797 5.78492188 12.09496094 5.99609375 12.76367188 C6.61917505 14.73160258 7.25783204 16.69396395 7.8984375 18.65625 C11.2718261 29.21451823 11.2718261 29.21451823 11 34 C10.01 34 9.02 34 8 34 C4.7021319 30.58479202 1.90095435 26.75447506 -1 23 C-1.84111328 21.98873047 -1.84111328 21.98873047 -2.69921875 20.95703125 C-4.88991278 18.21395591 -5.98461844 16.07550948 -6.6875 12.625 C-5.72238237 7.53619795 -3.10126772 4.07041388 0 0 Z " fill="#F7FBFB" transform="translate(143,149)"/>
<path d="M0 0 C2.64 0 5.28 0 8 0 C8 9.9 8 19.8 8 30 C5.36 30 2.72 30 0 30 C0 20.1 0 10.2 0 0 Z " fill="#25A0A9" transform="translate(1635,422)"/>
<path d="M0 0 C2.64 0 5.28 0 8 0 C8 9.9 8 19.8 8 30 C5.36 30 2.72 30 0 30 C0 20.1 0 10.2 0 0 Z " fill="#219EA8" transform="translate(1306,422)"/>
<path d="M0 0 C2.64 0 5.28 0 8 0 C8 9.9 8 19.8 8 30 C5.36 30 2.72 30 0 30 C0 20.1 0 10.2 0 0 Z " fill="#27A0AA" transform="translate(1242,422)"/>
<path d="M0 0 C3.0625 2.0625 3.0625 2.0625 5 5 C5.06886551 8.92533388 4.55357459 11.13642364 2.4375 14.4375 C-0.55675314 16.35689304 -2.57979374 16.64198916 -6.09375 16.4453125 C-8 16 -8 16 -10.5 13.9375 C-12.37276489 10.27000208 -12.59172793 8.06812955 -12 4 C-9.16483673 -0.60714032 -5.04704965 -1.13708233 0 0 Z " fill="#F6FBFB" transform="translate(978,429)"/>
<path d="M0 0 C3.0625 2.0625 3.0625 2.0625 5 5 C5.06886551 8.92533388 4.55357459 11.13642364 2.4375 14.4375 C-0.55675314 16.35689304 -2.57979374 16.64198916 -6.09375 16.4453125 C-8 16 -8 16 -10.5 13.9375 C-12.37276489 10.27000208 -12.59172793 8.06812955 -12 4 C-9.16483673 -0.60714032 -5.04704965 -1.13708233 0 0 Z " fill="#F6FBFB" transform="translate(725,429)"/>
<path d="M0 0 C1.875 1.0625 1.875 1.0625 3 3 C3.53468062 6.55711138 3.62733051 9.74533898 2 13 C-1.26205554 14.63102777 -4.43555389 14.51981506 -8 14 C-10 13 -10 13 -11 11 C-11.39302445 7.90493248 -11.62908496 5.95551234 -11 3 C-7.56705737 -1.13972494 -5.05326616 -1.64780418 0 0 Z " fill="#25A0A9" transform="translate(1150,430)"/>
<path d="M0 0 C0.66 0.33 1.32 0.66 2 1 C-8.56 11.56 -19.12 22.12 -30 33 C-30 30 -30 30 -28.71484375 28.45703125 C-28.12832031 27.91433594 -27.54179687 27.37164062 -26.9375 26.8125 C-24.37260288 24.42208568 -22.05658394 21.92392128 -19.78125 19.26171875 C-15.97430067 14.8718192 -11.83437071 10.93184074 -7.5625 7 C-6.83095703 6.32066406 -6.09941406 5.64132813 -5.34570312 4.94140625 C-3.56708477 3.29066242 -1.78519468 1.64362467 0 0 Z " fill="#3FAAB3" transform="translate(172,68)"/>
<path d="M0 0 C2.31 0.33 4.62 0.66 7 1 C7 2.98 7 4.96 7 7 C4.69 7.33 2.38 7.66 0 8 C0 5.36 0 2.72 0 0 Z " fill="#DDF0F1" transform="translate(681,428)"/>
<path d="M0 0 C-8.00523372 4.08777892 -16.24351645 3.26866484 -25 3 C-25 2.67 -25 2.34 -25 2 C-21.58518736 1.46649143 -18.16796104 0.95041814 -14.75 0.4375 C-13.78191406 0.28603516 -12.81382812 0.13457031 -11.81640625 -0.02148438 C-10.88183594 -0.16005859 -9.94726562 -0.29863281 -8.984375 -0.44140625 C-8.12553711 -0.57232666 -7.26669922 -0.70324707 -6.38183594 -0.83813477 C-3.98957886 -1.0007082 -2.27197422 -0.71976511 0 0 Z " fill="#CEE9EC" transform="translate(319,537)"/>
<path d="M0 0 C1.66611905 -0.042721 3.33382885 -0.04063832 5 0 C6 1 6 1 6.125 3.5 C6 6 6 6 5 7 C3.33382885 7.04063832 1.66611905 7.042721 0 7 C0 4.69 0 2.38 0 0 Z " fill="#E4F3F4" transform="translate(1946,428)"/>
<path d="M0 0 C2.475 0.495 2.475 0.495 5 1 C5.38218767 2.65614657 5.71395102 4.32457024 6 6 C5 7 5 7 2.4375 7.0625 C1.2309375 7.0315625 1.2309375 7.0315625 0 7 C0 4.69 0 2.38 0 0 Z " fill="#F2F9FA" transform="translate(1574,428)"/>
<path d="M0 0 C2.475 0.495 2.475 0.495 5 1 C5.38218767 2.65614657 5.71395102 4.32457024 6 6 C5 7 5 7 2.4375 7.0625 C1.2309375 7.0315625 1.2309375 7.0315625 0 7 C0 4.69 0 2.38 0 0 Z " fill="#F2F9FA" transform="translate(834,428)"/>
<path d="M0 0 C0.66 0 1.32 0 2 0 C2.66 2.97 3.32 5.94 4 9 C2.02 9 0.04 9 -2 9 C-1.34 6.03 -0.68 3.06 0 0 Z " fill="#DDEFF1" transform="translate(1812,432)"/>
<path d="M0 0 C2.12508244 3.18762365 2.5020163 5.26512223 3 9 C1.02 9 -0.96 9 -3 9 C-2.01 6.03 -1.02 3.06 0 0 Z " fill="#E0F1F3" transform="translate(1699,432)"/>
<path d="M0 0 C2.12508244 3.18762365 2.5020163 5.26512223 3 9 C1.02 9 -0.96 9 -3 9 C-2.01 6.03 -1.02 3.06 0 0 Z " fill="#E1F1F3" transform="translate(1379,432)"/>
<path d="M0 0 C2.43816585 -0.0809723 4.87364384 -0.14046972 7.3125 -0.1875 C8.34793945 -0.22520508 8.34793945 -0.22520508 9.40429688 -0.26367188 C14.55674183 -0.33834499 14.55674183 -0.33834499 16.98046875 1.51171875 C17.31691406 2.00285156 17.65335937 2.49398437 18 3 C11.84765625 3.09765625 11.84765625 3.09765625 10 3 C9.67 2.67 9.34 2.34 9 2 C7.48530552 1.76807135 5.96245438 1.58784762 4.4375 1.4375 C3.61121094 1.35371094 2.78492188 1.26992188 1.93359375 1.18359375 C1.29550781 1.12300781 0.65742188 1.06242188 0 1 C0 0.67 0 0.34 0 0 Z " fill="#D3EBED" transform="translate(248,537)"/>
<path d="M0 0 C0.66 0.33 1.32 0.66 2 1 C-1.63 4.63 -5.26 8.26 -9 12 C-9 7.8407692 -6.75316432 5.85455565 -4 3 C-1.6875 1.125 -1.6875 1.125 0 0 Z " fill="#D8EDEF" transform="translate(1723,300)"/>
<path d="M0 0 C0.66 0.33 1.32 0.66 2 1 C-1.63 4.63 -5.26 8.26 -9 12 C-9 7.8407692 -6.75316432 5.85455565 -4 3 C-1.6875 1.125 -1.6875 1.125 0 0 Z " fill="#D8EDEF" transform="translate(755,300)"/>
<path d="M0 0 C0.66 0.33 1.32 0.66 2 1 C-1.63 4.63 -5.26 8.26 -9 12 C-9 7.8407692 -6.75316432 5.85455565 -4 3 C-1.6875 1.125 -1.6875 1.125 0 0 Z " fill="#42ABB4" transform="translate(917,120)"/>
<path d="M0 0 C0 0.33 0 0.66 0 1 C-1.6396875 1.4021875 -1.6396875 1.4021875 -3.3125 1.8125 C-7.37767186 3.02926603 -7.37767186 3.02926603 -10 6 C-10.72197162 8.60611077 -10.72197162 8.60611077 -11 11 C-11.33 11 -11.66 11 -12 11 C-12.46233492 7.0239197 -12.30954571 5.43148796 -9.9375 2.125 C-6.34962488 -0.47048413 -4.3322929 -0.4247346 0 0 Z " fill="#CCE8EA" transform="translate(1524,429)"/>
<path d="M0 0 C0.66 0.33 1.32 0.66 2 1 C-0.31 3.31 -2.62 5.62 -5 8 C-5.33 7.34 -5.66 6.68 -6 6 C-2.25 1.125 -2.25 1.125 0 0 Z " fill="#40ABB4" transform="translate(1774,423)"/>
<path d="M0 0 C-1.15173355 2.46800047 -2.04783565 4.04783565 -4 6 C-4.69748583 7.31747324 -5.36959957 8.64914193 -6 10 C-5.38909774 3.52443609 -5.38909774 3.52443609 -3.5625 1.0625 C-2 0 -2 0 0 0 Z " fill="#C8E6E9" transform="translate(938,141)"/>
<path d="M0 0 C0.66 0 1.32 0 2 0 C2 0.99 2 1.98 2 3 C-0.5 5.1875 -0.5 5.1875 -3 7 C-3.66 6.67 -4.32 6.34 -5 6 C-3.38405168 3.95880212 -1.7143618 1.95927063 0 0 Z " fill="#D7EDEF" transform="translate(55,215)"/>
</svg>
